<svg width="353" height="141" viewBox="0 0 353 141" fill="none" xmlns="http://www.w3.org/2000/svg">
<circle cx="55" cy="55" r="54.5" stroke="#E0E0E0"/>
<circle cx="55" cy="55" r="44.5" stroke="#4985FF"/>
<g clip-path="url(#clip0_1_383)">
<path d="M74.3326 35H44.3327C43.9645 35 43.666 35.2985 43.666 35.6667V45.6666H44.9993V36.3333H73.6659V72.9999C73.6724 73.3505 73.4019 73.6442 73.0519 73.6666C72.9946 73.6666 72.9373 73.6619 72.8799 73.6606C72.7619 73.6573 72.6439 73.6546 72.5279 73.6426C72.5179 73.6426 72.5086 73.6426 72.4986 73.6386C70.3213 73.4006 68.6014 71.6823 68.3613 69.5053C68.3613 69.4959 68.358 69.4859 68.3566 69.4766C68.3405 69.3182 68.3325 69.1591 68.3326 68.9999V67.6666C68.3326 67.2984 68.0341 66.9999 67.666 66.9999H44.9993V55H43.666V66.9999H38.3327C37.9645 66.9999 37.666 67.2984 37.666 67.6666V68.9999C37.6697 72.3121 40.3538 74.9963 43.666 74.9999H73.0659C74.1478 74.9716 75.0076 74.0821 74.9993 72.9999V35.6667C74.9993 35.2985 74.7008 35 74.3326 35ZM43.666 73.6666C41.0899 73.6637 39.0023 71.576 38.9993 68.9999V68.3333H66.9993V68.9999C67.0002 69.2198 67.0129 69.4394 67.0373 69.6579C67.0433 69.7159 67.0546 69.7719 67.0626 69.8293C67.0846 69.9906 67.1113 70.1513 67.1466 70.3093C67.1586 70.3646 67.174 70.4193 67.188 70.4746C67.2286 70.6353 67.2746 70.7933 67.328 70.9493C67.3433 70.9939 67.3593 71.0379 67.376 71.0826C67.4366 71.2479 67.5053 71.4093 67.5806 71.5686C67.5966 71.6013 67.6113 71.6353 67.6273 71.6653C67.7109 71.8342 67.8026 71.9983 67.9026 72.1579C67.916 72.1793 67.928 72.2013 67.9413 72.2246C68.05 72.3948 68.1673 72.5595 68.2926 72.7179L68.314 72.7466C68.4595 72.9293 68.6153 73.1036 68.7806 73.2686C68.9242 73.4108 69.073 73.5442 69.2273 73.6686L43.666 73.6666Z" fill="#4985FF"/>
<path d="M57 53.6667C57.1768 53.6667 57.3463 53.5963 57.4713 53.4713L60.1379 50.8047C60.3982 50.5443 60.3982 50.1223 60.1379 49.862L57.4713 47.1953C57.3463 47.0703 57.1768 47 57 47H38.3333C36.4924 47 35 48.4924 35 50.3333C35 52.1742 36.4924 53.6667 38.3333 53.6667H57ZM56.828 48.4373L58.7239 50.3333L56.828 52.2293L56.354 50.3333L56.828 48.4373ZM40.3333 48.3333H55.48L55.1466 49.6667H41.6667V51H55.1466L55.48 52.3333H40.3333V48.3333ZM36.3333 50.3333C36.3333 49.2287 37.2287 48.3333 38.3333 48.3333H39V52.3333H38.3333C37.2287 52.3333 36.3333 51.4379 36.3333 50.3333Z" fill="#4985FF"/>
<path d="M50.3325 63.6666H70.3325C70.7007 63.6666 70.9992 63.3681 70.9992 62.9999V43C70.9991 42.6318 70.7006 42.3334 70.3323 42.3335C70.1556 42.3335 69.9862 42.4037 69.8612 42.5287L49.8612 62.5286C49.6009 62.789 49.601 63.2111 49.8614 63.4714C49.9864 63.5964 50.1558 63.6666 50.3325 63.6666ZM69.6658 44.6093V46.3333H68.3325V47.6666H69.6658V49H68.3325V50.3333H69.6658V51.6666H68.3325V53H69.6658V54.3333H68.3325V55.6666H69.6658V57H68.3325V58.3333H69.6658V59.6666H68.3325V60.9999H69.6658V62.3333H68.3325V60.9999H66.9992V62.3333H65.6658V60.9999H64.3325V62.3333H62.9992V60.9999H61.6659V62.3333H60.3325V60.9999H58.9992V62.3333H57.6659V60.9999H56.3325V62.3333H54.9992V60.9999H53.6659V62.3333H51.9419L69.6658 44.6093Z" fill="#4985FF"/>
<path d="M59.9907 59.6667H66.3341C66.7022 59.6667 67.0007 59.3682 67.0007 59V52.6567C67.0007 52.2886 66.7022 51.9902 66.3339 51.9902C66.1572 51.9902 65.9877 52.0605 65.8627 52.1854L59.5194 58.5287C59.2591 58.7891 59.2592 59.2112 59.5196 59.4715C59.6446 59.5965 59.814 59.6667 59.9907 59.6667ZM65.6674 54.2667V58.3334H61.6007L65.6674 54.2667Z" fill="#4985FF"/>
<path d="M65.6673 39H52.334V40.3333H65.6673V39Z" fill="#4985FF"/>
<path d="M67.6673 41.6665H50.334V42.9998H67.6673V41.6665Z" fill="#4985FF"/>
<path d="M50.334 55.6665H46.334V56.9998H50.334V55.6665Z" fill="#4985FF"/>
<path d="M49.0006 58.3335H46.334V59.6668H49.0006V58.3335Z" fill="#4985FF"/>
</g>
<path d="M134.56 63.18C133.6 63.18 132.706 63.024 131.878 62.712C131.062 62.388 130.348 61.938 129.736 61.362C129.136 60.774 128.668 60.084 128.332 59.292C127.996 58.5 127.828 57.636 127.828 56.7C127.828 55.764 127.996 54.9 128.332 54.108C128.668 53.316 129.142 52.632 129.754 52.056C130.366 51.468 131.08 51.018 131.896 50.706C132.712 50.382 133.606 50.22 134.578 50.22C135.61 50.22 136.552 50.4 137.404 50.76C138.256 51.108 138.976 51.63 139.564 52.326L138.052 53.748C137.596 53.256 137.086 52.89 136.522 52.65C135.958 52.398 135.346 52.272 134.686 52.272C134.026 52.272 133.42 52.38 132.868 52.596C132.328 52.812 131.854 53.118 131.446 53.514C131.05 53.91 130.738 54.378 130.51 54.918C130.294 55.458 130.186 56.052 130.186 56.7C130.186 57.348 130.294 57.942 130.51 58.482C130.738 59.022 131.05 59.49 131.446 59.886C131.854 60.282 132.328 60.588 132.868 60.804C133.42 61.02 134.026 61.128 134.686 61.128C135.346 61.128 135.958 61.008 136.522 60.768C137.086 60.516 137.596 60.138 138.052 59.634L139.564 61.074C138.976 61.758 138.256 62.28 137.404 62.64C136.552 63 135.604 63.18 134.56 63.18ZM143.219 63V54.756L143.741 55.296H139.835V53.388H148.835V55.296H144.947L145.469 54.756V63H143.219ZM150.467 63V53.388H155.165C156.329 53.388 157.241 53.604 157.901 54.036C158.573 54.468 158.909 55.08 158.909 55.872C158.909 56.652 158.597 57.264 157.973 57.708C157.349 58.14 156.521 58.356 155.489 58.356L155.759 57.798C156.923 57.798 157.787 58.014 158.351 58.446C158.927 58.866 159.215 59.484 159.215 60.3C159.215 61.152 158.897 61.818 158.261 62.298C157.625 62.766 156.659 63 155.363 63H150.467ZM152.609 61.362H155.183C155.795 61.362 156.257 61.266 156.569 61.074C156.881 60.87 157.037 60.564 157.037 60.156C157.037 59.724 156.893 59.406 156.605 59.202C156.317 58.998 155.867 58.896 155.255 58.896H152.609V61.362ZM152.609 57.402H154.967C155.543 57.402 155.975 57.3 156.263 57.096C156.563 56.88 156.713 56.58 156.713 56.196C156.713 55.8 156.563 55.506 156.263 55.314C155.975 55.122 155.543 55.026 154.967 55.026H152.609V57.402ZM165.896 63.126C164.912 63.126 164.036 62.916 163.268 62.496C162.5 62.064 161.894 61.476 161.45 60.732C161.006 59.988 160.784 59.142 160.784 58.194C160.784 57.234 161.006 56.388 161.45 55.656C161.894 54.912 162.5 54.33 163.268 53.91C164.036 53.49 164.912 53.28 165.896 53.28C166.892 53.28 167.774 53.49 168.542 53.91C169.322 54.33 169.928 54.906 170.36 55.638C170.804 56.37 171.026 57.222 171.026 58.194C171.026 59.142 170.804 59.988 170.36 60.732C169.928 61.476 169.322 62.064 168.542 62.496C167.774 62.916 166.892 63.126 165.896 63.126ZM165.896 61.2C166.448 61.2 166.94 61.08 167.372 60.84C167.804 60.6 168.14 60.252 168.38 59.796C168.632 59.34 168.758 58.806 168.758 58.194C168.758 57.57 168.632 57.036 168.38 56.592C168.14 56.136 167.804 55.788 167.372 55.548C166.94 55.308 166.454 55.188 165.914 55.188C165.362 55.188 164.87 55.308 164.438 55.548C164.018 55.788 163.682 56.136 163.43 56.592C163.178 57.036 163.052 57.57 163.052 58.194C163.052 58.806 163.178 59.34 163.43 59.796C163.682 60.252 164.018 60.6 164.438 60.84C164.87 61.08 165.356 61.2 165.896 61.2ZM178.576 63.126C177.796 63.126 177.082 62.946 176.434 62.586C175.798 62.226 175.288 61.686 174.904 60.966C174.532 60.234 174.346 59.31 174.346 58.194C174.346 57.066 174.526 56.142 174.886 55.422C175.258 54.702 175.762 54.168 176.398 53.82C177.034 53.46 177.76 53.28 178.576 53.28C179.524 53.28 180.358 53.484 181.078 53.892C181.81 54.3 182.386 54.87 182.806 55.602C183.238 56.334 183.454 57.198 183.454 58.194C183.454 59.19 183.238 60.06 182.806 60.804C182.386 61.536 181.81 62.106 181.078 62.514C180.358 62.922 179.524 63.126 178.576 63.126ZM173.248 66.492V53.388H175.39V55.656L175.318 58.212L175.498 60.768V66.492H173.248ZM178.324 61.2C178.864 61.2 179.344 61.08 179.764 60.84C180.196 60.6 180.538 60.252 180.79 59.796C181.042 59.34 181.168 58.806 181.168 58.194C181.168 57.57 181.042 57.036 180.79 56.592C180.538 56.136 180.196 55.788 179.764 55.548C179.344 55.308 178.864 55.188 178.324 55.188C177.784 55.188 177.298 55.308 176.866 55.548C176.434 55.788 176.092 56.136 175.84 56.592C175.588 57.036 175.462 57.57 175.462 58.194C175.462 58.806 175.588 59.34 175.84 59.796C176.092 60.252 176.434 60.6 176.866 60.84C177.298 61.08 177.784 61.2 178.324 61.2ZM190.176 63.126C189.108 63.126 188.172 62.916 187.368 62.496C186.576 62.064 185.958 61.476 185.514 60.732C185.082 59.988 184.866 59.142 184.866 58.194C184.866 57.234 185.076 56.388 185.496 55.656C185.928 54.912 186.516 54.33 187.26 53.91C188.016 53.49 188.874 53.28 189.834 53.28C190.77 53.28 191.604 53.484 192.336 53.892C193.068 54.3 193.644 54.876 194.064 55.62C194.484 56.364 194.694 57.24 194.694 58.248C194.694 58.344 194.688 58.452 194.676 58.572C194.676 58.692 194.67 58.806 194.658 58.914H186.648V57.42H193.47L192.588 57.888C192.6 57.336 192.486 56.85 192.246 56.43C192.006 56.01 191.676 55.68 191.256 55.44C190.848 55.2 190.374 55.08 189.834 55.08C189.282 55.08 188.796 55.2 188.376 55.44C187.968 55.68 187.644 56.016 187.404 56.448C187.176 56.868 187.062 57.366 187.062 57.942V58.302C187.062 58.878 187.194 59.388 187.458 59.832C187.722 60.276 188.094 60.618 188.574 60.858C189.054 61.098 189.606 61.218 190.23 61.218C190.77 61.218 191.256 61.134 191.688 60.966C192.12 60.798 192.504 60.534 192.84 60.174L194.046 61.56C193.614 62.064 193.068 62.454 192.408 62.73C191.76 62.994 191.016 63.126 190.176 63.126ZM197.155 63V53.388H199.405V57.294H204.247V53.388H206.497V63H204.247V59.202H199.405V63H197.155ZM209.512 63V53.388H211.762V57.294H216.604V53.388H218.854V63H216.604V59.202H211.762V63H209.512ZM227.971 63V59.724L228.295 60.102H225.415C224.095 60.102 223.057 59.826 222.301 59.274C221.557 58.71 221.185 57.9 221.185 56.844C221.185 55.716 221.581 54.858 222.373 54.27C223.177 53.682 224.245 53.388 225.577 53.388H229.987V63H227.971ZM221.059 63L223.651 59.328H225.955L223.471 63H221.059ZM227.971 59.004V54.684L228.295 55.278H225.649C224.953 55.278 224.413 55.41 224.029 55.674C223.657 55.926 223.471 56.34 223.471 56.916C223.471 57.996 224.173 58.536 225.577 58.536H228.295L227.971 59.004ZM242.363 63.126C241.355 63.126 240.455 62.916 239.663 62.496C238.883 62.064 238.271 61.476 237.827 60.732C237.383 59.988 237.161 59.142 237.161 58.194C237.161 57.234 237.383 56.388 237.827 55.656C238.271 54.912 238.883 54.33 239.663 53.91C240.455 53.49 241.355 53.28 242.363 53.28C243.299 53.28 244.121 53.472 244.829 53.856C245.549 54.228 246.095 54.78 246.467 55.512L244.739 56.52C244.451 56.064 244.097 55.728 243.677 55.512C243.269 55.296 242.825 55.188 242.345 55.188C241.793 55.188 241.295 55.308 240.851 55.548C240.407 55.788 240.059 56.136 239.807 56.592C239.555 57.036 239.429 57.57 239.429 58.194C239.429 58.818 239.555 59.358 239.807 59.814C240.059 60.258 240.407 60.6 240.851 60.84C241.295 61.08 241.793 61.2 242.345 61.2C242.825 61.2 243.269 61.092 243.677 60.876C244.097 60.66 244.451 60.324 244.739 59.868L246.467 60.876C246.095 61.596 245.549 62.154 244.829 62.55C244.121 62.934 243.299 63.126 242.363 63.126ZM254.28 63V61.056L254.154 60.642V57.24C254.154 56.58 253.956 56.07 253.56 55.71C253.164 55.338 252.564 55.152 251.76 55.152C251.22 55.152 250.686 55.236 250.158 55.404C249.642 55.572 249.204 55.806 248.844 56.106L247.962 54.468C248.478 54.072 249.09 53.778 249.798 53.586C250.518 53.382 251.262 53.28 252.03 53.28C253.422 53.28 254.496 53.616 255.252 54.288C256.02 54.948 256.404 55.974 256.404 57.366V63H254.28ZM251.256 63.126C250.536 63.126 249.906 63.006 249.366 62.766C248.826 62.514 248.406 62.172 248.106 61.74C247.818 61.296 247.674 60.798 247.674 60.246C247.674 59.706 247.8 59.22 248.052 58.788C248.316 58.356 248.742 58.014 249.33 57.762C249.918 57.51 250.698 57.384 251.67 57.384H254.46V58.878H251.832C251.064 58.878 250.548 59.004 250.284 59.256C250.02 59.496 249.888 59.796 249.888 60.156C249.888 60.564 250.05 60.888 250.374 61.128C250.698 61.368 251.148 61.488 251.724 61.488C252.276 61.488 252.768 61.362 253.2 61.11C253.644 60.858 253.962 60.486 254.154 59.994L254.532 61.344C254.316 61.908 253.926 62.346 253.362 62.658C252.81 62.97 252.108 63.126 251.256 63.126ZM259.188 63V53.388H261.438V59.724L266.748 53.388H268.8V63H266.55V56.664L261.258 63H259.188ZM263.85 52.254C262.89 52.254 262.152 52.032 261.636 51.588C261.12 51.132 260.856 50.472 260.844 49.608H262.338C262.35 50.04 262.482 50.382 262.734 50.634C262.998 50.886 263.364 51.012 263.832 51.012C264.288 51.012 264.648 50.886 264.912 50.634C265.188 50.382 265.332 50.04 265.344 49.608H266.874C266.862 50.472 266.592 51.132 266.064 51.588C265.548 52.032 264.81 52.254 263.85 52.254ZM273.824 63V54.756L274.346 55.296H270.44V53.388H279.44V55.296H275.552L276.074 54.756V63H273.824ZM281.073 63V53.388H283.323V63H281.073ZM282.207 51.804C281.787 51.804 281.439 51.672 281.163 51.408C280.899 51.144 280.767 50.826 280.767 50.454C280.767 50.07 280.899 49.752 281.163 49.5C281.439 49.236 281.787 49.104 282.207 49.104C282.627 49.104 282.969 49.23 283.233 49.482C283.509 49.722 283.647 50.028 283.647 50.4C283.647 50.796 283.515 51.132 283.251 51.408C282.987 51.672 282.639 51.804 282.207 51.804ZM286.364 63V53.388H291.062C292.226 53.388 293.138 53.604 293.798 54.036C294.47 54.468 294.806 55.08 294.806 55.872C294.806 56.652 294.494 57.264 293.87 57.708C293.246 58.14 292.418 58.356 291.386 58.356L291.656 57.798C292.82 57.798 293.684 58.014 294.248 58.446C294.824 58.866 295.112 59.484 295.112 60.3C295.112 61.152 294.794 61.818 294.158 62.298C293.522 62.766 292.556 63 291.26 63H286.364ZM288.506 61.362H291.08C291.692 61.362 292.154 61.266 292.466 61.074C292.778 60.87 292.934 60.564 292.934 60.156C292.934 59.724 292.79 59.406 292.502 59.202C292.214 58.998 291.764 58.896 291.152 58.896H288.506V61.362ZM288.506 57.402H290.864C291.44 57.402 291.872 57.3 292.16 57.096C292.46 56.88 292.61 56.58 292.61 56.196C292.61 55.8 292.46 55.506 292.16 55.314C291.872 55.122 291.44 55.026 290.864 55.026H288.506V57.402Z" fill="black"/>
<path d="M129.596 95V85.2H130.632V94.104H136.12V95H129.596ZM140.517 95.07C139.807 95.07 139.168 94.9113 138.599 94.594C138.039 94.2673 137.595 93.824 137.269 93.264C136.942 92.6947 136.779 92.046 136.779 91.318C136.779 90.5807 136.942 89.932 137.269 89.372C137.595 88.812 138.039 88.3733 138.599 88.056C139.159 87.7387 139.798 87.58 140.517 87.58C141.245 87.58 141.889 87.7387 142.449 88.056C143.018 88.3733 143.461 88.812 143.779 89.372C144.105 89.932 144.269 90.5807 144.269 91.318C144.269 92.046 144.105 92.6947 143.779 93.264C143.461 93.824 143.018 94.2673 142.449 94.594C141.879 94.9113 141.235 95.07 140.517 95.07ZM140.517 94.188C141.049 94.188 141.52 94.0713 141.931 93.838C142.341 93.5953 142.663 93.2593 142.897 92.83C143.139 92.3913 143.261 91.8873 143.261 91.318C143.261 90.7393 143.139 90.2353 142.897 89.806C142.663 89.3767 142.341 89.0453 141.931 88.812C141.52 88.5693 141.053 88.448 140.531 88.448C140.008 88.448 139.541 88.5693 139.131 88.812C138.72 89.0453 138.393 89.3767 138.151 89.806C137.908 90.2353 137.787 90.7393 137.787 91.318C137.787 91.8873 137.908 92.3913 138.151 92.83C138.393 93.2593 138.72 93.5953 139.131 93.838C139.541 94.0713 140.003 94.188 140.517 94.188ZM146.298 95V87.65H147.25V89.652L147.152 89.302C147.357 88.742 147.703 88.3173 148.188 88.028C148.673 87.7293 149.275 87.58 149.994 87.58V88.546C149.957 88.546 149.919 88.546 149.882 88.546C149.845 88.5367 149.807 88.532 149.77 88.532C148.995 88.532 148.389 88.77 147.95 89.246C147.511 89.7127 147.292 90.38 147.292 91.248V95H146.298ZM154.862 95.07C154.096 95.07 153.424 94.9113 152.846 94.594C152.267 94.2673 151.814 93.824 151.488 93.264C151.161 92.6947 150.998 92.046 150.998 91.318C150.998 90.59 151.152 89.946 151.46 89.386C151.777 88.826 152.206 88.3873 152.748 88.07C153.298 87.7433 153.914 87.58 154.596 87.58C155.286 87.58 155.898 87.7387 156.43 88.056C156.971 88.364 157.396 88.8027 157.704 89.372C158.012 89.932 158.166 90.5807 158.166 91.318C158.166 91.3647 158.161 91.416 158.152 91.472C158.152 91.5187 158.152 91.57 158.152 91.626H151.754V90.884H157.62L157.228 91.178C157.228 90.646 157.111 90.1747 156.878 89.764C156.654 89.344 156.346 89.0173 155.954 88.784C155.562 88.5507 155.109 88.434 154.596 88.434C154.092 88.434 153.639 88.5507 153.238 88.784C152.836 89.0173 152.524 89.344 152.3 89.764C152.076 90.184 151.964 90.6647 151.964 91.206V91.36C151.964 91.92 152.085 92.4147 152.328 92.844C152.58 93.264 152.925 93.5953 153.364 93.838C153.812 94.0713 154.32 94.188 154.89 94.188C155.338 94.188 155.753 94.1087 156.136 93.95C156.528 93.7913 156.864 93.5487 157.144 93.222L157.704 93.866C157.377 94.258 156.966 94.5567 156.472 94.762C155.986 94.9673 155.45 95.07 154.862 95.07ZM169.373 87.58C169.97 87.58 170.488 87.6967 170.927 87.93C171.375 88.154 171.72 88.4993 171.963 88.966C172.215 89.4327 172.341 90.0207 172.341 90.73V95H171.347V90.828C171.347 90.0533 171.16 89.47 170.787 89.078C170.423 88.6767 169.905 88.476 169.233 88.476C168.729 88.476 168.29 88.5833 167.917 88.798C167.553 89.0033 167.268 89.3067 167.063 89.708C166.867 90.1 166.769 90.576 166.769 91.136V95H165.775V90.828C165.775 90.0533 165.588 89.47 165.215 89.078C164.841 88.6767 164.319 88.476 163.647 88.476C163.152 88.476 162.718 88.5833 162.345 88.798C161.971 89.0033 161.682 89.3067 161.477 89.708C161.281 90.1 161.183 90.576 161.183 91.136V95H160.189V87.65H161.141V89.638L160.987 89.288C161.211 88.756 161.57 88.3407 162.065 88.042C162.569 87.734 163.161 87.58 163.843 87.58C164.561 87.58 165.173 87.762 165.677 88.126C166.181 88.4807 166.507 89.0173 166.657 89.736L166.265 89.582C166.479 88.9847 166.857 88.504 167.399 88.14C167.949 87.7667 168.607 87.58 169.373 87.58ZM178.91 95V85.2H179.946V95H178.91ZM186.719 95.07C186.084 95.07 185.51 94.9253 184.997 94.636C184.484 94.3373 184.073 93.9127 183.765 93.362C183.466 92.802 183.317 92.1207 183.317 91.318C183.317 90.5153 183.466 89.8387 183.765 89.288C184.064 88.728 184.47 88.3033 184.983 88.014C185.496 87.7247 186.075 87.58 186.719 87.58C187.419 87.58 188.044 87.7387 188.595 88.056C189.155 88.364 189.594 88.8027 189.911 89.372C190.228 89.932 190.387 90.5807 190.387 91.318C190.387 92.0647 190.228 92.718 189.911 93.278C189.594 93.838 189.155 94.2767 188.595 94.594C188.044 94.9113 187.419 95.07 186.719 95.07ZM182.925 97.716V87.65H183.877V89.862L183.779 91.332L183.919 92.816V97.716H182.925ZM186.649 94.188C187.172 94.188 187.638 94.0713 188.049 93.838C188.46 93.5953 188.786 93.2593 189.029 92.83C189.272 92.3913 189.393 91.8873 189.393 91.318C189.393 90.7487 189.272 90.2493 189.029 89.82C188.786 89.3907 188.46 89.0547 188.049 88.812C187.638 88.5693 187.172 88.448 186.649 88.448C186.126 88.448 185.655 88.5693 185.235 88.812C184.824 89.0547 184.498 89.3907 184.255 89.82C184.022 90.2493 183.905 90.7487 183.905 91.318C183.905 91.8873 184.022 92.3913 184.255 92.83C184.498 93.2593 184.824 93.5953 185.235 93.838C185.655 94.0713 186.126 94.188 186.649 94.188ZM194.387 95.07C193.781 95.07 193.207 94.986 192.665 94.818C192.124 94.6407 191.699 94.4213 191.391 94.16L191.839 93.376C192.138 93.6 192.521 93.796 192.987 93.964C193.454 94.1227 193.944 94.202 194.457 94.202C195.157 94.202 195.661 94.0947 195.969 93.88C196.277 93.656 196.431 93.362 196.431 92.998C196.431 92.7273 196.343 92.5173 196.165 92.368C195.997 92.2093 195.773 92.0927 195.493 92.018C195.213 91.934 194.901 91.864 194.555 91.808C194.21 91.752 193.865 91.6867 193.519 91.612C193.183 91.5373 192.875 91.43 192.595 91.29C192.315 91.1407 192.087 90.94 191.909 90.688C191.741 90.436 191.657 90.1 191.657 89.68C191.657 89.2787 191.769 88.9193 191.993 88.602C192.217 88.2847 192.544 88.0373 192.973 87.86C193.412 87.6733 193.944 87.58 194.569 87.58C195.045 87.58 195.521 87.6453 195.997 87.776C196.473 87.8973 196.865 88.0607 197.173 88.266L196.739 89.064C196.413 88.84 196.063 88.6813 195.689 88.588C195.316 88.4853 194.943 88.434 194.569 88.434C193.907 88.434 193.417 88.5507 193.099 88.784C192.791 89.008 192.637 89.2973 192.637 89.652C192.637 89.932 192.721 90.1513 192.889 90.31C193.067 90.4687 193.295 90.5947 193.575 90.688C193.865 90.772 194.177 90.842 194.513 90.898C194.859 90.954 195.199 91.024 195.535 91.108C195.881 91.1827 196.193 91.29 196.473 91.43C196.763 91.5607 196.991 91.752 197.159 92.004C197.337 92.2467 197.425 92.5687 197.425 92.97C197.425 93.3993 197.304 93.7727 197.061 94.09C196.828 94.398 196.483 94.6407 196.025 94.818C195.577 94.986 195.031 95.07 194.387 95.07ZM202.287 95.07C201.662 95.07 201.116 94.9533 200.649 94.72C200.183 94.4867 199.819 94.1367 199.557 93.67C199.305 93.2033 199.179 92.62 199.179 91.92V87.65H200.173V91.808C200.173 92.592 200.365 93.1847 200.747 93.586C201.139 93.978 201.685 94.174 202.385 94.174C202.899 94.174 203.342 94.0713 203.715 93.866C204.098 93.6513 204.387 93.3433 204.583 92.942C204.789 92.5407 204.891 92.06 204.891 91.5V87.65H205.885V95H204.933V92.984L205.087 93.348C204.854 93.8893 204.49 94.314 203.995 94.622C203.51 94.9207 202.941 95.07 202.287 95.07ZM217.84 87.58C218.437 87.58 218.955 87.6967 219.394 87.93C219.842 88.154 220.187 88.4993 220.43 88.966C220.682 89.4327 220.808 90.0207 220.808 90.73V95H219.814V90.828C219.814 90.0533 219.627 89.47 219.254 89.078C218.89 88.6767 218.372 88.476 217.7 88.476C217.196 88.476 216.757 88.5833 216.384 88.798C216.02 89.0033 215.735 89.3067 215.53 89.708C215.334 90.1 215.236 90.576 215.236 91.136V95H214.242V90.828C214.242 90.0533 214.055 89.47 213.682 89.078C213.308 88.6767 212.786 88.476 212.114 88.476C211.619 88.476 211.185 88.5833 210.812 88.798C210.438 89.0033 210.149 89.3067 209.944 89.708C209.748 90.1 209.65 90.576 209.65 91.136V95H208.656V87.65H209.608V89.638L209.454 89.288C209.678 88.756 210.037 88.3407 210.532 88.042C211.036 87.734 211.628 87.58 212.31 87.58C213.028 87.58 213.64 87.762 214.144 88.126C214.648 88.4807 214.974 89.0173 215.124 89.736L214.732 89.582C214.946 88.9847 215.324 88.504 215.866 88.14C216.416 87.7667 217.074 87.58 217.84 87.58ZM226.621 91.64V90.772H230.289V91.64H226.621ZM236.205 95V87.65H237.199V94.132H241.693V87.65H242.687V95H236.205ZM242.939 96.778V94.916L243.191 95H241.693V94.132H243.877V96.778H242.939ZM248.925 95.07C248.16 95.07 247.488 94.9113 246.909 94.594C246.331 94.2673 245.878 93.824 245.551 93.264C245.225 92.6947 245.061 92.046 245.061 91.318C245.061 90.59 245.215 89.946 245.523 89.386C245.841 88.826 246.27 88.3873 246.811 88.07C247.362 87.7433 247.978 87.58 248.659 87.58C249.35 87.58 249.961 87.7387 250.493 88.056C251.035 88.364 251.459 88.8027 251.767 89.372C252.075 89.932 252.229 90.5807 252.229 91.318C252.229 91.3647 252.225 91.416 252.215 91.472C252.215 91.5187 252.215 91.57 252.215 91.626H245.817V90.884H251.683L251.291 91.178C251.291 90.646 251.175 90.1747 250.941 89.764C250.717 89.344 250.409 89.0173 250.017 88.784C249.625 88.5507 249.173 88.434 248.659 88.434C248.155 88.434 247.703 88.5507 247.301 88.784C246.9 89.0173 246.587 89.344 246.363 89.764C246.139 90.184 246.027 90.6647 246.027 91.206V91.36C246.027 91.92 246.149 92.4147 246.391 92.844C246.643 93.264 246.989 93.5953 247.427 93.838C247.875 94.0713 248.384 94.188 248.953 94.188C249.401 94.188 249.817 94.1087 250.199 93.95C250.591 93.7913 250.927 93.5487 251.207 93.222L251.767 93.866C251.441 94.258 251.03 94.5567 250.535 94.762C250.05 94.9673 249.513 95.07 248.925 95.07ZM259.494 95V88.252L259.746 88.518H256.708V87.65H263.274V88.518H260.236L260.488 88.252V95H259.494ZM267.519 95.07C266.754 95.07 266.082 94.9113 265.503 94.594C264.924 94.2673 264.472 93.824 264.145 93.264C263.818 92.6947 263.655 92.046 263.655 91.318C263.655 90.59 263.809 89.946 264.117 89.386C264.434 88.826 264.864 88.3873 265.405 88.07C265.956 87.7433 266.572 87.58 267.253 87.58C267.944 87.58 268.555 87.7387 269.087 88.056C269.628 88.364 270.053 88.8027 270.361 89.372C270.669 89.932 270.823 90.5807 270.823 91.318C270.823 91.3647 270.818 91.416 270.809 91.472C270.809 91.5187 270.809 91.57 270.809 91.626H264.411V90.884H270.277L269.885 91.178C269.885 90.646 269.768 90.1747 269.535 89.764C269.311 89.344 269.003 89.0173 268.611 88.784C268.219 88.5507 267.766 88.434 267.253 88.434C266.749 88.434 266.296 88.5507 265.895 88.784C265.494 89.0173 265.181 89.344 264.957 89.764C264.733 90.184 264.621 90.6647 264.621 91.206V91.36C264.621 91.92 264.742 92.4147 264.985 92.844C265.237 93.264 265.582 93.5953 266.021 93.838C266.469 94.0713 266.978 94.188 267.547 94.188C267.995 94.188 268.41 94.1087 268.793 93.95C269.185 93.7913 269.521 93.5487 269.801 93.222L270.361 93.866C270.034 94.258 269.624 94.5567 269.129 94.762C268.644 94.9673 268.107 95.07 267.519 95.07ZM278.413 95L275.389 91.36L276.215 90.87L279.589 95H278.413ZM273.023 95V87.65H274.017V95H273.023ZM273.709 91.724V90.87H276.075V91.724H273.709ZM276.299 91.43L275.375 91.29L278.301 87.65H279.379L276.299 91.43ZM283.978 95.07C283.25 95.07 282.597 94.9113 282.018 94.594C281.449 94.2673 281.001 93.824 280.674 93.264C280.348 92.6947 280.184 92.046 280.184 91.318C280.184 90.5807 280.348 89.932 280.674 89.372C281.001 88.812 281.449 88.3733 282.018 88.056C282.597 87.7387 283.25 87.58 283.978 87.58C284.604 87.58 285.168 87.7013 285.672 87.944C286.176 88.1867 286.573 88.5507 286.862 89.036L286.12 89.54C285.868 89.1667 285.556 88.8913 285.182 88.714C284.809 88.5367 284.403 88.448 283.964 88.448C283.442 88.448 282.97 88.5693 282.55 88.812C282.13 89.0453 281.799 89.3767 281.556 89.806C281.314 90.2353 281.192 90.7393 281.192 91.318C281.192 91.8967 281.314 92.4007 281.556 92.83C281.799 93.2593 282.13 93.5953 282.55 93.838C282.97 94.0713 283.442 94.188 283.964 94.188C284.403 94.188 284.809 94.0993 285.182 93.922C285.556 93.7447 285.868 93.474 286.12 93.11L286.862 93.614C286.573 94.09 286.176 94.454 285.672 94.706C285.168 94.9487 284.604 95.07 283.978 95.07ZM290.05 95V88.252L290.302 88.518H287.264V87.65H293.83V88.518H290.792L291.044 88.252V95H290.05ZM294.379 91.64V90.772H298.047V91.64H294.379ZM299.921 88.896L299.851 85.2H300.733L300.663 88.896H299.921ZM302.315 88.896L302.245 85.2H303.127L303.057 88.896H302.315ZM309.315 95.07C308.681 95.07 308.107 94.9253 307.593 94.636C307.08 94.3373 306.669 93.9127 306.361 93.362C306.063 92.802 305.913 92.1207 305.913 91.318C305.913 90.5153 306.063 89.8387 306.361 89.288C306.66 88.728 307.066 88.3033 307.579 88.014C308.093 87.7247 308.671 87.58 309.315 87.58C310.015 87.58 310.641 87.7387 311.191 88.056C311.751 88.364 312.19 88.8027 312.507 89.372C312.825 89.932 312.983 90.5807 312.983 91.318C312.983 92.0647 312.825 92.718 312.507 93.278C312.19 93.838 311.751 94.2767 311.191 94.594C310.641 94.9113 310.015 95.07 309.315 95.07ZM305.521 97.716V87.65H306.473V89.862L306.375 91.332L306.515 92.816V97.716H305.521ZM309.245 94.188C309.768 94.188 310.235 94.0713 310.645 93.838C311.056 93.5953 311.383 93.2593 311.625 92.83C311.868 92.3913 311.989 91.8873 311.989 91.318C311.989 90.7487 311.868 90.2493 311.625 89.82C311.383 89.3907 311.056 89.0547 310.645 88.812C310.235 88.5693 309.768 88.448 309.245 88.448C308.723 88.448 308.251 88.5693 307.831 88.812C307.421 89.0547 307.094 89.3907 306.851 89.82C306.618 90.2493 306.501 90.7487 306.501 91.318C306.501 91.8873 306.618 92.3913 306.851 92.83C307.094 93.2593 307.421 93.5953 307.831 93.838C308.251 94.0713 308.723 94.188 309.245 94.188ZM315.119 95V87.65H316.113V93.488L321.027 87.65H321.909V95H320.915V89.148L316.015 95H315.119ZM328.062 95.084C327.464 95.084 326.932 94.986 326.466 94.79C326.008 94.594 325.616 94.2953 325.29 93.894C324.963 93.4927 324.716 92.998 324.548 92.41C324.38 91.8127 324.296 91.122 324.296 90.338C324.296 89.638 324.361 89.0267 324.492 88.504C324.622 87.972 324.804 87.5147 325.038 87.132C325.271 86.7493 325.542 86.4273 325.85 86.166C326.167 85.8953 326.508 85.6807 326.872 85.522C327.245 85.354 327.628 85.228 328.02 85.144L331.324 84.374L331.492 85.298L328.384 85.998C328.188 86.0447 327.95 86.11 327.67 86.194C327.399 86.278 327.119 86.404 326.83 86.572C326.55 86.74 326.288 86.9733 326.046 87.272C325.803 87.5707 325.607 87.958 325.458 88.434C325.318 88.9007 325.248 89.484 325.248 90.184C325.248 90.3333 325.252 90.4547 325.262 90.548C325.271 90.632 325.28 90.7253 325.29 90.828C325.308 90.9213 325.322 91.0613 325.332 91.248L324.898 90.884C325 90.3147 325.21 89.82 325.528 89.4C325.845 88.9707 326.242 88.6393 326.718 88.406C327.203 88.1633 327.74 88.042 328.328 88.042C329.009 88.042 329.616 88.1913 330.148 88.49C330.68 88.7793 331.095 89.1853 331.394 89.708C331.702 90.2307 331.856 90.8373 331.856 91.528C331.856 92.2093 331.697 92.8207 331.38 93.362C331.072 93.9033 330.633 94.328 330.064 94.636C329.494 94.9347 328.827 95.084 328.062 95.084ZM328.174 94.258C328.696 94.258 329.158 94.1413 329.56 93.908C329.961 93.6653 330.274 93.3387 330.498 92.928C330.731 92.5173 330.848 92.0553 330.848 91.542C330.848 91.038 330.731 90.59 330.498 90.198C330.274 89.806 329.961 89.498 329.56 89.274C329.158 89.0407 328.692 88.924 328.16 88.924C327.637 88.924 327.175 89.036 326.774 89.26C326.372 89.4747 326.055 89.778 325.822 90.17C325.598 90.562 325.486 91.0147 325.486 91.528C325.486 92.0413 325.598 92.5033 325.822 92.914C326.055 93.3247 326.372 93.6513 326.774 93.894C327.184 94.1367 327.651 94.258 328.174 94.258ZM338.509 95V93.376L338.467 93.11V90.394C338.467 89.7687 338.29 89.288 337.935 88.952C337.59 88.616 337.072 88.448 336.381 88.448C335.905 88.448 335.453 88.5273 335.023 88.686C334.594 88.8447 334.23 89.0547 333.931 89.316L333.483 88.574C333.857 88.2567 334.305 88.014 334.827 87.846C335.35 87.6687 335.901 87.58 336.479 87.58C337.431 87.58 338.164 87.818 338.677 88.294C339.2 88.7607 339.461 89.4747 339.461 90.436V95H338.509ZM335.975 95.07C335.425 95.07 334.944 94.9813 334.533 94.804C334.132 94.6173 333.824 94.3653 333.609 94.048C333.395 93.7213 333.287 93.348 333.287 92.928C333.287 92.5453 333.376 92.2 333.553 91.892C333.74 91.5747 334.039 91.3227 334.449 91.136C334.869 90.94 335.429 90.842 336.129 90.842H338.663V91.584H336.157C335.448 91.584 334.953 91.71 334.673 91.962C334.403 92.214 334.267 92.5267 334.267 92.9C334.267 93.32 334.431 93.656 334.757 93.908C335.084 94.16 335.541 94.286 336.129 94.286C336.689 94.286 337.17 94.16 337.571 93.908C337.982 93.6467 338.281 93.2733 338.467 92.788L338.691 93.474C338.505 93.9593 338.178 94.3467 337.711 94.636C337.254 94.9253 336.675 95.07 335.975 95.07ZM341.729 88.896L341.659 85.2H342.541L342.471 88.896H341.729ZM344.123 88.896L344.053 85.2H344.935L344.865 88.896H344.123ZM345.934 97.044L346.55 94.454L346.662 95.056C346.448 95.056 346.266 94.986 346.116 94.846C345.976 94.706 345.906 94.524 345.906 94.3C345.906 94.076 345.976 93.894 346.116 93.754C346.266 93.614 346.443 93.544 346.648 93.544C346.863 93.544 347.036 93.6187 347.166 93.768C347.306 93.9173 347.376 94.0947 347.376 94.3C347.376 94.3747 347.372 94.4493 347.362 94.524C347.353 94.5987 347.334 94.6827 347.306 94.776C347.278 94.8693 347.241 94.9813 347.194 95.112L346.606 97.044H345.934ZM134.062 113.892C133.633 114.079 133.199 114.228 132.76 114.34C132.331 114.443 131.901 114.494 131.472 114.494C130.604 114.494 129.918 114.298 129.414 113.906C128.91 113.505 128.658 112.889 128.658 112.058V109.65H129.638V112.002C129.638 112.562 129.82 112.982 130.184 113.262C130.548 113.542 131.038 113.682 131.654 113.682C132.027 113.682 132.419 113.635 132.83 113.542C133.241 113.439 133.656 113.295 134.076 113.108L134.062 113.892ZM133.978 117V109.65H134.972V117H133.978ZM142.359 117V115.376L142.317 115.11V112.394C142.317 111.769 142.14 111.288 141.785 110.952C141.44 110.616 140.922 110.448 140.231 110.448C139.755 110.448 139.302 110.527 138.873 110.686C138.444 110.845 138.08 111.055 137.781 111.316L137.333 110.574C137.706 110.257 138.154 110.014 138.677 109.846C139.2 109.669 139.75 109.58 140.329 109.58C141.281 109.58 142.014 109.818 142.527 110.294C143.05 110.761 143.311 111.475 143.311 112.436V117H142.359ZM139.825 117.07C139.274 117.07 138.794 116.981 138.383 116.804C137.982 116.617 137.674 116.365 137.459 116.048C137.244 115.721 137.137 115.348 137.137 114.928C137.137 114.545 137.226 114.2 137.403 113.892C137.59 113.575 137.888 113.323 138.299 113.136C138.719 112.94 139.279 112.842 139.979 112.842H142.513V113.584H140.007C139.298 113.584 138.803 113.71 138.523 113.962C138.252 114.214 138.117 114.527 138.117 114.9C138.117 115.32 138.28 115.656 138.607 115.908C138.934 116.16 139.391 116.286 139.979 116.286C140.539 116.286 141.02 116.16 141.421 115.908C141.832 115.647 142.13 115.273 142.317 114.788L142.541 115.474C142.354 115.959 142.028 116.347 141.561 116.636C141.104 116.925 140.525 117.07 139.825 117.07ZM149.037 117.07C148.309 117.07 147.656 116.911 147.077 116.594C146.508 116.267 146.06 115.824 145.733 115.264C145.406 114.695 145.243 114.046 145.243 113.318C145.243 112.581 145.406 111.932 145.733 111.372C146.06 110.812 146.508 110.373 147.077 110.056C147.656 109.739 148.309 109.58 149.037 109.58C149.662 109.58 150.227 109.701 150.731 109.944C151.235 110.187 151.632 110.551 151.921 111.036L151.179 111.54C150.927 111.167 150.614 110.891 150.241 110.714C149.868 110.537 149.462 110.448 149.023 110.448C148.5 110.448 148.029 110.569 147.609 110.812C147.189 111.045 146.858 111.377 146.615 111.806C146.372 112.235 146.251 112.739 146.251 113.318C146.251 113.897 146.372 114.401 146.615 114.83C146.858 115.259 147.189 115.595 147.609 115.838C148.029 116.071 148.5 116.188 149.023 116.188C149.462 116.188 149.868 116.099 150.241 115.922C150.614 115.745 150.927 115.474 151.179 115.11L151.921 115.614C151.632 116.09 151.235 116.454 150.731 116.706C150.227 116.949 149.662 117.07 149.037 117.07ZM155.109 117V110.252L155.361 110.518H152.323V109.65H158.889V110.518H155.851L156.103 110.252V117H155.109ZM163.008 117.07C162.299 117.07 161.66 116.911 161.09 116.594C160.53 116.267 160.087 115.824 159.76 115.264C159.434 114.695 159.27 114.046 159.27 113.318C159.27 112.581 159.434 111.932 159.76 111.372C160.087 110.812 160.53 110.373 161.09 110.056C161.65 109.739 162.29 109.58 163.008 109.58C163.736 109.58 164.38 109.739 164.94 110.056C165.51 110.373 165.953 110.812 166.27 111.372C166.597 111.932 166.76 112.581 166.76 113.318C166.76 114.046 166.597 114.695 166.27 115.264C165.953 115.824 165.51 116.267 164.94 116.594C164.371 116.911 163.727 117.07 163.008 117.07ZM163.008 116.188C163.54 116.188 164.012 116.071 164.422 115.838C164.833 115.595 165.155 115.259 165.388 114.83C165.631 114.391 165.752 113.887 165.752 113.318C165.752 112.739 165.631 112.235 165.388 111.806C165.155 111.377 164.833 111.045 164.422 110.812C164.012 110.569 163.545 110.448 163.022 110.448C162.5 110.448 162.033 110.569 161.622 110.812C161.212 111.045 160.885 111.377 160.642 111.806C160.4 112.235 160.278 112.739 160.278 113.318C160.278 113.887 160.4 114.391 160.642 114.83C160.885 115.259 161.212 115.595 161.622 115.838C162.033 116.071 162.495 116.188 163.008 116.188ZM172.549 117V109.65H175.797C176.627 109.65 177.281 109.809 177.757 110.126C178.242 110.443 178.485 110.91 178.485 111.526C178.485 112.123 178.256 112.585 177.799 112.912C177.341 113.229 176.739 113.388 175.993 113.388L176.189 113.094C177.066 113.094 177.71 113.257 178.121 113.584C178.531 113.911 178.737 114.382 178.737 114.998C178.737 115.633 178.503 116.127 178.037 116.482C177.579 116.827 176.865 117 175.895 117H172.549ZM173.515 116.216H175.853C176.478 116.216 176.949 116.118 177.267 115.922C177.593 115.717 177.757 115.39 177.757 114.942C177.757 114.494 177.612 114.167 177.323 113.962C177.033 113.757 176.576 113.654 175.951 113.654H173.515V116.216ZM173.515 112.912H175.727C176.296 112.912 176.73 112.805 177.029 112.59C177.337 112.375 177.491 112.063 177.491 111.652C177.491 111.241 177.337 110.933 177.029 110.728C176.73 110.523 176.296 110.42 175.727 110.42H173.515V112.912ZM181.066 117V109.65H182.06V115.488L186.974 109.65H187.856V117H186.862V111.148L181.962 117H181.066ZM196.095 117L193.071 113.36L193.897 112.87L197.271 117H196.095ZM190.705 117V109.65H191.699V117H190.705ZM191.391 113.724V112.87H193.757V113.724H191.391ZM193.981 113.43L193.057 113.29L195.983 109.65H197.061L193.981 113.43ZM201.604 117.07C200.895 117.07 200.255 116.911 199.686 116.594C199.126 116.267 198.683 115.824 198.356 115.264C198.029 114.695 197.866 114.046 197.866 113.318C197.866 112.581 198.029 111.932 198.356 111.372C198.683 110.812 199.126 110.373 199.686 110.056C200.246 109.739 200.885 109.58 201.604 109.58C202.332 109.58 202.976 109.739 203.536 110.056C204.105 110.373 204.549 110.812 204.866 111.372C205.193 111.932 205.356 112.581 205.356 113.318C205.356 114.046 205.193 114.695 204.866 115.264C204.549 115.824 204.105 116.267 203.536 116.594C202.967 116.911 202.323 117.07 201.604 117.07ZM201.604 116.188C202.136 116.188 202.607 116.071 203.018 115.838C203.429 115.595 203.751 115.259 203.984 114.83C204.227 114.391 204.348 113.887 204.348 113.318C204.348 112.739 204.227 112.235 203.984 111.806C203.751 111.377 203.429 111.045 203.018 110.812C202.607 110.569 202.141 110.448 201.618 110.448C201.095 110.448 200.629 110.569 200.218 110.812C199.807 111.045 199.481 111.377 199.238 111.806C198.995 112.235 198.874 112.739 198.874 113.318C198.874 113.887 198.995 114.391 199.238 114.83C199.481 115.259 199.807 115.595 200.218 115.838C200.629 116.071 201.091 116.188 201.604 116.188ZM211.274 117.07C210.64 117.07 210.066 116.925 209.552 116.636C209.039 116.337 208.628 115.913 208.32 115.362C208.022 114.802 207.872 114.121 207.872 113.318C207.872 112.515 208.022 111.839 208.32 111.288C208.619 110.728 209.025 110.303 209.538 110.014C210.052 109.725 210.63 109.58 211.274 109.58C211.974 109.58 212.6 109.739 213.15 110.056C213.71 110.364 214.149 110.803 214.466 111.372C214.784 111.932 214.942 112.581 214.942 113.318C214.942 114.065 214.784 114.718 214.466 115.278C214.149 115.838 213.71 116.277 213.15 116.594C212.6 116.911 211.974 117.07 211.274 117.07ZM207.48 119.716V109.65H208.432V111.862L208.334 113.332L208.474 114.816V119.716H207.48ZM211.204 116.188C211.727 116.188 212.194 116.071 212.604 115.838C213.015 115.595 213.342 115.259 213.584 114.83C213.827 114.391 213.948 113.887 213.948 113.318C213.948 112.749 213.827 112.249 213.584 111.82C213.342 111.391 213.015 111.055 212.604 110.812C212.194 110.569 211.727 110.448 211.204 110.448C210.682 110.448 210.21 110.569 209.79 110.812C209.38 111.055 209.053 111.391 208.81 111.82C208.577 112.249 208.46 112.749 208.46 113.318C208.46 113.887 208.577 114.391 208.81 114.83C209.053 115.259 209.38 115.595 209.79 115.838C210.21 116.071 210.682 116.188 211.204 116.188ZM217.078 117V109.65H218.072V115.488L222.986 109.65H223.868V117H222.874V111.148L217.974 117H217.078ZM229.797 117.07C229.069 117.07 228.415 116.911 227.837 116.594C227.267 116.267 226.819 115.824 226.493 115.264C226.166 114.695 226.003 114.046 226.003 113.318C226.003 112.581 226.166 111.932 226.493 111.372C226.819 110.812 227.267 110.373 227.837 110.056C228.415 109.739 229.069 109.58 229.797 109.58C230.422 109.58 230.987 109.701 231.491 109.944C231.995 110.187 232.391 110.551 232.681 111.036L231.939 111.54C231.687 111.167 231.374 110.891 231.001 110.714C230.627 110.537 230.221 110.448 229.783 110.448C229.26 110.448 228.789 110.569 228.369 110.812C227.949 111.045 227.617 111.377 227.375 111.806C227.132 112.235 227.011 112.739 227.011 113.318C227.011 113.897 227.132 114.401 227.375 114.83C227.617 115.259 227.949 115.595 228.369 115.838C228.789 116.071 229.26 116.188 229.783 116.188C230.221 116.188 230.627 116.099 231.001 115.922C231.374 115.745 231.687 115.474 231.939 115.11L232.681 115.614C232.391 116.09 231.995 116.454 231.491 116.706C230.987 116.949 230.422 117.07 229.797 117.07ZM235.869 117V110.252L236.121 110.518H233.083V109.65H239.649V110.518H236.611L236.863 110.252V117H235.869ZM243.768 117.07C243.059 117.07 242.419 116.911 241.85 116.594C241.29 116.267 240.847 115.824 240.52 115.264C240.193 114.695 240.03 114.046 240.03 113.318C240.03 112.581 240.193 111.932 240.52 111.372C240.847 110.812 241.29 110.373 241.85 110.056C242.41 109.739 243.049 109.58 243.768 109.58C244.496 109.58 245.14 109.739 245.7 110.056C246.269 110.373 246.713 110.812 247.03 111.372C247.357 111.932 247.52 112.581 247.52 113.318C247.52 114.046 247.357 114.695 247.03 115.264C246.713 115.824 246.269 116.267 245.7 116.594C245.131 116.911 244.487 117.07 243.768 117.07ZM243.768 116.188C244.3 116.188 244.771 116.071 245.182 115.838C245.593 115.595 245.915 115.259 246.148 114.83C246.391 114.391 246.512 113.887 246.512 113.318C246.512 112.739 246.391 112.235 246.148 111.806C245.915 111.377 245.593 111.045 245.182 110.812C244.771 110.569 244.305 110.448 243.782 110.448C243.259 110.448 242.793 110.569 242.382 110.812C241.971 111.045 241.645 111.377 241.402 111.806C241.159 112.235 241.038 112.739 241.038 113.318C241.038 113.887 241.159 114.391 241.402 114.83C241.645 115.259 241.971 115.595 242.382 115.838C242.793 116.071 243.255 116.188 243.768 116.188ZM249.644 117V109.65H252.892C253.723 109.65 254.376 109.809 254.852 110.126C255.338 110.443 255.58 110.91 255.58 111.526C255.58 112.123 255.352 112.585 254.894 112.912C254.437 113.229 253.835 113.388 253.088 113.388L253.284 113.094C254.162 113.094 254.806 113.257 255.216 113.584C255.627 113.911 255.832 114.382 255.832 114.998C255.832 115.633 255.599 116.127 255.132 116.482C254.675 116.827 253.961 117 252.99 117H249.644ZM250.61 116.216H252.948C253.574 116.216 254.045 116.118 254.362 115.922C254.689 115.717 254.852 115.39 254.852 114.942C254.852 114.494 254.708 114.167 254.418 113.962C254.129 113.757 253.672 113.654 253.046 113.654H250.61V116.216ZM250.61 112.912H252.822C253.392 112.912 253.826 112.805 254.124 112.59C254.432 112.375 254.586 112.063 254.586 111.652C254.586 111.241 254.432 110.933 254.124 110.728C253.826 110.523 253.392 110.42 252.822 110.42H250.61V112.912ZM258.288 119.786C257.943 119.786 257.611 119.73 257.294 119.618C256.986 119.506 256.72 119.338 256.496 119.114L256.958 118.372C257.145 118.549 257.345 118.685 257.56 118.778C257.784 118.881 258.031 118.932 258.302 118.932C258.629 118.932 258.909 118.839 259.142 118.652C259.385 118.475 259.613 118.157 259.828 117.7L260.304 116.622L260.416 116.468L263.44 109.65H264.42L260.738 117.882C260.533 118.358 260.304 118.736 260.052 119.016C259.809 119.296 259.543 119.492 259.254 119.604C258.965 119.725 258.643 119.786 258.288 119.786ZM260.248 117.21L256.86 109.65H257.896L260.892 116.398L260.248 117.21ZM269.922 113.01V113.752H265.652V113.01H269.922ZM268.942 117.07C268.195 117.07 267.528 116.911 266.94 116.594C266.352 116.267 265.885 115.819 265.54 115.25C265.204 114.681 265.036 114.037 265.036 113.318C265.036 112.59 265.204 111.946 265.54 111.386C265.885 110.817 266.352 110.373 266.94 110.056C267.528 109.729 268.195 109.566 268.942 109.566C269.548 109.566 270.108 109.659 270.622 109.846C271.135 110.033 271.569 110.313 271.924 110.686L271.35 111.26C271.023 110.961 270.659 110.742 270.258 110.602C269.866 110.462 269.436 110.392 268.97 110.392C268.4 110.392 267.887 110.518 267.43 110.77C266.982 111.022 266.622 111.372 266.352 111.82C266.09 112.259 265.96 112.758 265.96 113.318C265.96 113.887 266.09 114.391 266.352 114.83C266.622 115.269 266.982 115.619 267.43 115.88C267.887 116.132 268.4 116.258 268.97 116.258C269.436 116.258 269.866 116.188 270.258 116.048C270.659 115.899 271.023 115.67 271.35 115.362L271.924 115.936C271.569 116.309 271.135 116.594 270.622 116.79C270.108 116.977 269.548 117.07 268.942 117.07ZM277.565 119.786C277.22 119.786 276.889 119.73 276.571 119.618C276.263 119.506 275.997 119.338 275.773 119.114L276.235 118.372C276.422 118.549 276.623 118.685 276.837 118.778C277.061 118.881 277.309 118.932 277.579 118.932C277.906 118.932 278.186 118.839 278.419 118.652C278.662 118.475 278.891 118.157 279.105 117.7L279.581 116.622L279.693 116.468L282.717 109.65H283.697L280.015 117.882C279.81 118.358 279.581 118.736 279.329 119.016C279.087 119.296 278.821 119.492 278.531 119.604C278.242 119.725 277.92 119.786 277.565 119.786ZM279.525 117.21L276.137 109.65H277.173L280.169 116.398L279.525 117.21ZM288.91 117V109.65H295.518V117H294.524V110.252L294.776 110.518H289.652L289.904 110.252V117H288.91ZM302.138 117.07C301.503 117.07 300.929 116.925 300.416 116.636C299.902 116.337 299.492 115.913 299.184 115.362C298.885 114.802 298.736 114.121 298.736 113.318C298.736 112.515 298.885 111.839 299.184 111.288C299.482 110.728 299.888 110.303 300.402 110.014C300.915 109.725 301.494 109.58 302.138 109.58C302.838 109.58 303.463 109.739 304.014 110.056C304.574 110.364 305.012 110.803 305.33 111.372C305.647 111.932 305.806 112.581 305.806 113.318C305.806 114.065 305.647 114.718 305.33 115.278C305.012 115.838 304.574 116.277 304.014 116.594C303.463 116.911 302.838 117.07 302.138 117.07ZM298.344 119.716V109.65H299.296V111.862L299.198 113.332L299.338 114.816V119.716H298.344ZM302.068 116.188C302.59 116.188 303.057 116.071 303.468 115.838C303.878 115.595 304.205 115.259 304.448 114.83C304.69 114.391 304.812 113.887 304.812 113.318C304.812 112.749 304.69 112.249 304.448 111.82C304.205 111.391 303.878 111.055 303.468 110.812C303.057 110.569 302.59 110.448 302.068 110.448C301.545 110.448 301.074 110.569 300.654 110.812C300.243 111.055 299.916 111.391 299.674 111.82C299.44 112.249 299.324 112.749 299.324 113.318C299.324 113.887 299.44 114.391 299.674 114.83C299.916 115.259 300.243 115.595 300.654 115.838C301.074 116.071 301.545 116.188 302.068 116.188ZM311.091 117.07C310.326 117.07 309.654 116.911 309.075 116.594C308.497 116.267 308.044 115.824 307.717 115.264C307.391 114.695 307.227 114.046 307.227 113.318C307.227 112.59 307.381 111.946 307.689 111.386C308.007 110.826 308.436 110.387 308.977 110.07C309.528 109.743 310.144 109.58 310.825 109.58C311.516 109.58 312.127 109.739 312.659 110.056C313.201 110.364 313.625 110.803 313.933 111.372C314.241 111.932 314.395 112.581 314.395 113.318C314.395 113.365 314.391 113.416 314.381 113.472C314.381 113.519 314.381 113.57 314.381 113.626H307.983V112.884H313.849L313.457 113.178C313.457 112.646 313.341 112.175 313.107 111.764C312.883 111.344 312.575 111.017 312.183 110.784C311.791 110.551 311.339 110.434 310.825 110.434C310.321 110.434 309.869 110.551 309.467 110.784C309.066 111.017 308.753 111.344 308.529 111.764C308.305 112.184 308.193 112.665 308.193 113.206V113.36C308.193 113.92 308.315 114.415 308.557 114.844C308.809 115.264 309.155 115.595 309.593 115.838C310.041 116.071 310.55 116.188 311.119 116.188C311.567 116.188 311.983 116.109 312.365 115.95C312.757 115.791 313.093 115.549 313.373 115.222L313.933 115.866C313.607 116.258 313.196 116.557 312.701 116.762C312.216 116.967 311.679 117.07 311.091 117.07ZM319.676 117.07C318.948 117.07 318.294 116.911 317.716 116.594C317.146 116.267 316.698 115.824 316.372 115.264C316.045 114.695 315.882 114.046 315.882 113.318C315.882 112.581 316.045 111.932 316.372 111.372C316.698 110.812 317.146 110.373 317.716 110.056C318.294 109.739 318.948 109.58 319.676 109.58C320.301 109.58 320.866 109.701 321.37 109.944C321.874 110.187 322.27 110.551 322.56 111.036L321.818 111.54C321.566 111.167 321.253 110.891 320.88 110.714C320.506 110.537 320.1 110.448 319.662 110.448C319.139 110.448 318.668 110.569 318.248 110.812C317.828 111.045 317.496 111.377 317.254 111.806C317.011 112.235 316.89 112.739 316.89 113.318C316.89 113.897 317.011 114.401 317.254 114.83C317.496 115.259 317.828 115.595 318.248 115.838C318.668 116.071 319.139 116.188 319.662 116.188C320.1 116.188 320.506 116.099 320.88 115.922C321.253 115.745 321.566 115.474 321.818 115.11L322.56 115.614C322.27 116.09 321.874 116.454 321.37 116.706C320.866 116.949 320.301 117.07 319.676 117.07ZM324.484 117V109.65H325.478V117H324.484ZM324.988 108.026C324.783 108.026 324.61 107.956 324.47 107.816C324.33 107.676 324.26 107.508 324.26 107.312C324.26 107.116 324.33 106.953 324.47 106.822C324.61 106.682 324.783 106.612 324.988 106.612C325.194 106.612 325.366 106.677 325.506 106.808C325.646 106.939 325.716 107.102 325.716 107.298C325.716 107.503 325.646 107.676 325.506 107.816C325.376 107.956 325.203 108.026 324.988 108.026ZM333.377 117V110.252L333.629 110.518H330.591V109.65H337.157V110.518H334.119L334.371 110.252V117H333.377ZM343.158 117V115.376L343.116 115.11V112.394C343.116 111.769 342.938 111.288 342.584 110.952C342.238 110.616 341.72 110.448 341.03 110.448C340.554 110.448 340.101 110.527 339.672 110.686C339.242 110.845 338.878 111.055 338.58 111.316L338.132 110.574C338.505 110.257 338.953 110.014 339.476 109.846C339.998 109.669 340.549 109.58 341.128 109.58C342.08 109.58 342.812 109.818 343.326 110.294C343.848 110.761 344.11 111.475 344.11 112.436V117H343.158ZM340.624 117.07C340.073 117.07 339.592 116.981 339.182 116.804C338.78 116.617 338.472 116.365 338.258 116.048C338.043 115.721 337.936 115.348 337.936 114.928C337.936 114.545 338.024 114.2 338.202 113.892C338.388 113.575 338.687 113.323 339.098 113.136C339.518 112.94 340.078 112.842 340.778 112.842H343.312V113.584H340.806C340.096 113.584 339.602 113.71 339.322 113.962C339.051 114.214 338.916 114.527 338.916 114.9C338.916 115.32 339.079 115.656 339.406 115.908C339.732 116.16 340.19 116.286 340.778 116.286C341.338 116.286 341.818 116.16 342.22 115.908C342.63 115.647 342.929 115.273 343.116 114.788L343.34 115.474C343.153 115.959 342.826 116.347 342.36 116.636C341.902 116.925 341.324 117.07 340.624 117.07ZM129.414 139V131.65H132.662C133.493 131.65 134.146 131.809 134.622 132.126C135.107 132.443 135.35 132.91 135.35 133.526C135.35 134.123 135.121 134.585 134.664 134.912C134.207 135.229 133.605 135.388 132.858 135.388L133.054 135.094C133.931 135.094 134.575 135.257 134.986 135.584C135.397 135.911 135.602 136.382 135.602 136.998C135.602 137.633 135.369 138.127 134.902 138.482C134.445 138.827 133.731 139 132.76 139H129.414ZM130.38 138.216H132.718C133.343 138.216 133.815 138.118 134.132 137.922C134.459 137.717 134.622 137.39 134.622 136.942C134.622 136.494 134.477 136.167 134.188 135.962C133.899 135.757 133.441 135.654 132.816 135.654H130.38V138.216ZM130.38 134.912H132.592C133.161 134.912 133.595 134.805 133.894 134.59C134.202 134.375 134.356 134.063 134.356 133.652C134.356 133.241 134.202 132.933 133.894 132.728C133.595 132.523 133.161 132.42 132.592 132.42H130.38V134.912ZM141.082 139.07C140.316 139.07 139.644 138.911 139.066 138.594C138.487 138.267 138.034 137.824 137.708 137.264C137.381 136.695 137.218 136.046 137.218 135.318C137.218 134.59 137.372 133.946 137.68 133.386C137.997 132.826 138.426 132.387 138.968 132.07C139.518 131.743 140.134 131.58 140.816 131.58C141.506 131.58 142.118 131.739 142.65 132.056C143.191 132.364 143.616 132.803 143.924 133.372C144.232 133.932 144.386 134.581 144.386 135.318C144.386 135.365 144.381 135.416 144.372 135.472C144.372 135.519 144.372 135.57 144.372 135.626H137.974V134.884H143.84L143.448 135.178C143.448 134.646 143.331 134.175 143.098 133.764C142.874 133.344 142.566 133.017 142.174 132.784C141.782 132.551 141.329 132.434 140.816 132.434C140.312 132.434 139.859 132.551 139.458 132.784C139.056 133.017 138.744 133.344 138.52 133.764C138.296 134.184 138.184 134.665 138.184 135.206V135.36C138.184 135.92 138.305 136.415 138.548 136.844C138.8 137.264 139.145 137.595 139.584 137.838C140.032 138.071 140.54 138.188 141.11 138.188C141.558 138.188 141.973 138.109 142.356 137.95C142.748 137.791 143.084 137.549 143.364 137.222L143.924 137.866C143.597 138.258 143.186 138.557 142.692 138.762C142.206 138.967 141.67 139.07 141.082 139.07ZM149.89 139.084C149.293 139.084 148.761 138.986 148.294 138.79C147.837 138.594 147.445 138.295 147.118 137.894C146.791 137.493 146.544 136.998 146.376 136.41C146.208 135.813 146.124 135.122 146.124 134.338C146.124 133.638 146.189 133.027 146.32 132.504C146.451 131.972 146.633 131.515 146.866 131.132C147.099 130.749 147.37 130.427 147.678 130.166C147.995 129.895 148.336 129.681 148.7 129.522C149.073 129.354 149.456 129.228 149.848 129.144L153.152 128.374L153.32 129.298L150.212 129.998C150.016 130.045 149.778 130.11 149.498 130.194C149.227 130.278 148.947 130.404 148.658 130.572C148.378 130.74 148.117 130.973 147.874 131.272C147.631 131.571 147.435 131.958 147.286 132.434C147.146 132.901 147.076 133.484 147.076 134.184C147.076 134.333 147.081 134.455 147.09 134.548C147.099 134.632 147.109 134.725 147.118 134.828C147.137 134.921 147.151 135.061 147.16 135.248L146.726 134.884C146.829 134.315 147.039 133.82 147.356 133.4C147.673 132.971 148.07 132.639 148.546 132.406C149.031 132.163 149.568 132.042 150.156 132.042C150.837 132.042 151.444 132.191 151.976 132.49C152.508 132.779 152.923 133.185 153.222 133.708C153.53 134.231 153.684 134.837 153.684 135.528C153.684 136.209 153.525 136.821 153.208 137.362C152.9 137.903 152.461 138.328 151.892 138.636C151.323 138.935 150.655 139.084 149.89 139.084ZM150.002 138.258C150.525 138.258 150.987 138.141 151.388 137.908C151.789 137.665 152.102 137.339 152.326 136.928C152.559 136.517 152.676 136.055 152.676 135.542C152.676 135.038 152.559 134.59 152.326 134.198C152.102 133.806 151.789 133.498 151.388 133.274C150.987 133.041 150.52 132.924 149.988 132.924C149.465 132.924 149.003 133.036 148.602 133.26C148.201 133.475 147.883 133.778 147.65 134.17C147.426 134.562 147.314 135.015 147.314 135.528C147.314 136.041 147.426 136.503 147.65 136.914C147.883 137.325 148.201 137.651 148.602 137.894C149.013 138.137 149.479 138.258 150.002 138.258ZM155.377 135.64V134.772H159.045V135.64H155.377ZM166.186 138.524V132.518H162.644L162.56 134.156C162.542 134.651 162.509 135.136 162.462 135.612C162.425 136.088 162.355 136.527 162.252 136.928C162.159 137.32 162.024 137.642 161.846 137.894C161.669 138.137 161.44 138.277 161.16 138.314L160.166 138.132C160.456 138.141 160.694 138.039 160.88 137.824C161.067 137.6 161.212 137.297 161.314 136.914C161.417 136.531 161.492 136.097 161.538 135.612C161.585 135.117 161.622 134.613 161.65 134.1L161.748 131.65H167.18V138.524H166.186ZM159.858 140.778V138.132H168.328V140.778H167.39V139H160.796V140.778H159.858ZM170.266 139V131.65H171.26V137.488L176.174 131.65H177.056V139H176.062V133.148L171.162 139H170.266ZM181.728 139.084C182.335 139.084 182.881 138.991 183.366 138.804C183.861 138.617 184.253 138.361 184.542 138.034C184.831 137.698 184.976 137.311 184.976 136.872C184.976 136.312 184.738 135.869 184.262 135.542C183.795 135.215 183.142 135.052 182.302 135.052L182.26 135.318C182.736 135.318 183.161 135.243 183.534 135.094C183.907 134.945 184.206 134.735 184.43 134.464C184.654 134.193 184.766 133.876 184.766 133.512C184.766 133.101 184.626 132.751 184.346 132.462C184.066 132.163 183.688 131.935 183.212 131.776C182.745 131.617 182.218 131.547 181.63 131.566C181.201 131.566 180.771 131.627 180.342 131.748C179.922 131.86 179.497 132.028 179.068 132.252L179.348 133.022C179.731 132.826 180.118 132.681 180.51 132.588C180.902 132.485 181.28 132.429 181.644 132.42C182.045 132.42 182.405 132.467 182.722 132.56C183.039 132.653 183.287 132.793 183.464 132.98C183.651 133.167 183.744 133.391 183.744 133.652C183.744 133.895 183.665 134.105 183.506 134.282C183.357 134.459 183.142 134.595 182.862 134.688C182.582 134.781 182.26 134.828 181.896 134.828H180.706V135.556H181.966C182.582 135.556 183.067 135.668 183.422 135.892C183.777 136.107 183.954 136.41 183.954 136.802C183.954 137.073 183.861 137.315 183.674 137.53C183.487 137.745 183.226 137.913 182.89 138.034C182.554 138.155 182.157 138.221 181.7 138.23C181.243 138.23 180.781 138.165 180.314 138.034C179.847 137.894 179.437 137.693 179.082 137.432L178.76 138.174C179.161 138.482 179.623 138.711 180.146 138.86C180.669 139.009 181.196 139.084 181.728 139.084ZM191.796 139V137.376L191.754 137.11V134.394C191.754 133.769 191.577 133.288 191.222 132.952C190.877 132.616 190.359 132.448 189.668 132.448C189.192 132.448 188.74 132.527 188.31 132.686C187.881 132.845 187.517 133.055 187.218 133.316L186.77 132.574C187.144 132.257 187.592 132.014 188.114 131.846C188.637 131.669 189.188 131.58 189.766 131.58C190.718 131.58 191.451 131.818 191.964 132.294C192.487 132.761 192.748 133.475 192.748 134.436V139H191.796ZM189.262 139.07C188.712 139.07 188.231 138.981 187.82 138.804C187.419 138.617 187.111 138.365 186.896 138.048C186.682 137.721 186.574 137.348 186.574 136.928C186.574 136.545 186.663 136.2 186.84 135.892C187.027 135.575 187.326 135.323 187.736 135.136C188.156 134.94 188.716 134.842 189.416 134.842H191.95V135.584H189.444C188.735 135.584 188.24 135.71 187.96 135.962C187.69 136.214 187.554 136.527 187.554 136.9C187.554 137.32 187.718 137.656 188.044 137.908C188.371 138.16 188.828 138.286 189.416 138.286C189.976 138.286 190.457 138.16 190.858 137.908C191.269 137.647 191.568 137.273 191.754 136.788L191.978 137.474C191.792 137.959 191.465 138.347 190.998 138.636C190.541 138.925 189.962 139.07 189.262 139.07ZM195.394 139V131.65H196.388V137.488L201.302 131.65H202.184V139H201.19V133.148L196.29 139H195.394ZM198.726 130.586C198.11 130.586 197.611 130.432 197.228 130.124C196.855 129.807 196.659 129.354 196.64 128.766H197.354C197.364 129.139 197.494 129.433 197.746 129.648C197.998 129.863 198.325 129.97 198.726 129.97C199.128 129.97 199.454 129.863 199.706 129.648C199.968 129.433 200.103 129.139 200.112 128.766H200.826C200.817 129.354 200.621 129.807 200.238 130.124C199.856 130.432 199.352 130.586 198.726 130.586ZM205.033 139V131.65H206.027V134.898H210.661V131.65H211.655V139H210.661V135.752H206.027V139H205.033ZM214.48 139V131.65H215.474V139H214.48ZM214.984 130.026C214.779 130.026 214.606 129.956 214.466 129.816C214.326 129.676 214.256 129.508 214.256 129.312C214.256 129.116 214.326 128.953 214.466 128.822C214.606 128.682 214.779 128.612 214.984 128.612C215.19 128.612 215.362 128.677 215.502 128.808C215.642 128.939 215.712 129.102 215.712 129.298C215.712 129.503 215.642 129.676 215.502 129.816C215.372 129.956 215.199 130.026 214.984 130.026ZM218.379 139.07C218.173 139.07 217.996 138.995 217.847 138.846C217.707 138.697 217.637 138.515 217.637 138.3C217.637 138.076 217.707 137.894 217.847 137.754C217.996 137.614 218.173 137.544 218.379 137.544C218.584 137.544 218.757 137.614 218.897 137.754C219.046 137.894 219.121 138.076 219.121 138.3C219.121 138.515 219.046 138.697 218.897 138.846C218.757 138.995 218.584 139.07 218.379 139.07Z" fill="#999999"/>
<defs>
<clipPath id="clip0_1_383">
<rect width="40" height="40" fill="white" transform="translate(35 35)"/>
</clipPath>
</defs>
</svg>
